<svg width="42" height="42" viewBox="0 0 42 42" fill="none" xmlns="http://www.w3.org/2000/svg">
<circle cx="21" cy="21" r="21" fill="#E8E8E8"/>
<path d="M28.6374 13.3191C27.6442 12.3158 26.4612 11.5204 25.1573 10.9791C23.8535 10.4379 22.4549 10.1617 21.0432 10.1666C15.1282 10.1666 10.3074 14.9874 10.3074 20.9024C10.3074 22.7982 10.8057 24.6399 11.7374 26.2649L10.2207 31.8332L15.9082 30.3382C17.479 31.1941 19.2449 31.6491 21.0432 31.6491C26.9582 31.6491 31.779 26.8282 31.779 20.9132C31.779 18.0424 30.6632 15.3449 28.6374 13.3191ZM21.0432 29.8291C19.4399 29.8291 17.869 29.3957 16.4932 28.5832L16.1682 28.3882L12.7882 29.2766L13.6874 25.9832L13.4707 25.6474C12.5799 24.225 12.1069 22.5807 12.1057 20.9024C12.1057 15.9841 16.114 11.9757 21.0324 11.9757C23.4157 11.9757 25.6582 12.9074 27.3374 14.5974C28.1688 15.425 28.8277 16.4095 29.2759 17.4936C29.724 18.5778 29.9526 19.7401 29.9482 20.9132C29.9699 25.8316 25.9615 29.8291 21.0432 29.8291ZM25.9399 23.1557C25.669 23.0257 24.3474 22.3757 24.109 22.2782C23.8599 22.1916 23.6865 22.1482 23.5024 22.4082C23.3182 22.6791 22.809 23.2857 22.6574 23.4591C22.5057 23.6432 22.3432 23.6649 22.0724 23.5241C21.8015 23.3941 20.9349 23.1016 19.9165 22.1916C19.1149 21.4766 18.584 20.5991 18.4215 20.3282C18.2699 20.0574 18.3999 19.9166 18.5407 19.7757C18.6599 19.6566 18.8115 19.4616 18.9415 19.3099C19.0715 19.1582 19.1257 19.0391 19.2124 18.8657C19.299 18.6816 19.2557 18.5299 19.1907 18.3999C19.1257 18.2699 18.584 16.9482 18.3674 16.4066C18.1507 15.8866 17.9232 15.9516 17.7607 15.9407H17.2407C17.0565 15.9407 16.7749 16.0057 16.5257 16.2766C16.2874 16.5474 15.594 17.1974 15.594 18.5191C15.594 19.8407 16.5582 21.1191 16.6882 21.2924C16.8182 21.4766 18.584 24.1849 21.2707 25.3441C21.9099 25.6257 22.4082 25.7882 22.7982 25.9074C23.4374 26.1132 24.0224 26.0807 24.4882 26.0157C25.0082 25.9399 26.0807 25.3657 26.2974 24.7374C26.5249 24.1091 26.5249 23.5782 26.449 23.4591C26.3732 23.3399 26.2107 23.2857 25.9399 23.1557Z" fill="#222222"/>
</svg>
