<svg width="18" height="18" viewBox="0 0 18 18" fill="none" xmlns="http://www.w3.org/2000/svg">
<path d="M17.6715 15.5621L14.1827 12.0574C14.0252 11.8992 13.8117 11.8113 13.5878 11.8113H13.0174C13.9832 10.5704 14.5571 9.00966 14.5571 7.31178C14.5571 3.27272 11.2992 0 7.27854 0C3.25785 0 0 3.27272 0 7.31178C0 11.3508 3.25785 14.6236 7.27854 14.6236C8.96871 14.6236 10.5224 14.047 11.7576 13.0768V13.6498C11.7576 13.8748 11.8451 14.0892 12.0026 14.2474L15.4914 17.7521C15.8203 18.0826 16.3522 18.0826 16.6777 17.7521L17.668 16.7573C17.9969 16.4269 17.9969 15.8926 17.6715 15.5621ZM7.27854 11.8113C4.80454 11.8113 2.79944 9.80059 2.79944 7.31178C2.79944 4.82648 4.80104 2.81222 7.27854 2.81222C9.75255 2.81222 11.7576 4.82296 11.7576 7.31178C11.7576 9.79708 9.75605 11.8113 7.27854 11.8113Z" fill="#333333"/>
</svg>
