<svg width="26" height="26" viewBox="0 0 26 26" fill="none" xmlns="http://www.w3.org/2000/svg">
<path d="M20.6374 5.31907C19.6442 4.31582 18.4612 3.52038 17.1573 2.97912C15.8535 2.43787 14.4549 2.16165 13.0432 2.16657C7.1282 2.16657 2.30737 6.9874 2.30737 12.9024C2.30737 14.7982 2.8057 16.6399 3.73737 18.2649L2.2207 23.8332L7.9082 22.3382C9.47904 23.1941 11.2449 23.6491 13.0432 23.6491C18.9582 23.6491 23.779 18.8282 23.779 12.9132C23.779 10.0424 22.6632 7.3449 20.6374 5.31907ZM13.0432 21.8291C11.4399 21.8291 9.86904 21.3957 8.4932 20.5832L8.1682 20.3882L4.7882 21.2766L5.68737 17.9832L5.4707 17.6474C4.57993 16.225 4.10694 14.5807 4.1057 12.9024C4.1057 7.98407 8.11404 3.97574 13.0324 3.97574C15.4157 3.97574 17.6582 4.9074 19.3374 6.5974C20.1688 7.42503 20.8277 8.40945 21.2759 9.49361C21.724 10.5778 21.9526 11.7401 21.9482 12.9132C21.9699 17.8316 17.9615 21.8291 13.0432 21.8291ZM17.9399 15.1557C17.669 15.0257 16.3474 14.3757 16.109 14.2782C15.8599 14.1916 15.6865 14.1482 15.5024 14.4082C15.3182 14.6791 14.809 15.2857 14.6574 15.4591C14.5057 15.6432 14.3432 15.6649 14.0724 15.5241C13.8015 15.3941 12.9349 15.1016 11.9165 14.1916C11.1149 13.4766 10.584 12.5991 10.4215 12.3282C10.2699 12.0574 10.3999 11.9166 10.5407 11.7757C10.6599 11.6566 10.8115 11.4616 10.9415 11.3099C11.0715 11.1582 11.1257 11.0391 11.2124 10.8657C11.299 10.6816 11.2557 10.5299 11.1907 10.3999C11.1257 10.2699 10.584 8.94824 10.3674 8.40657C10.1507 7.88657 9.9232 7.95157 9.7607 7.94074H9.2407C9.05654 7.94074 8.77487 8.00574 8.5257 8.27657C8.28737 8.5474 7.59404 9.1974 7.59404 10.5191C7.59404 11.8407 8.5582 13.1191 8.6882 13.2924C8.8182 13.4766 10.584 16.1849 13.2707 17.3441C13.9099 17.6257 14.4082 17.7882 14.7982 17.9074C15.4374 18.1132 16.0224 18.0807 16.4882 18.0157C17.0082 17.9399 18.0807 17.3657 18.2974 16.7374C18.5249 16.1091 18.5249 15.5782 18.449 15.4591C18.3732 15.3399 18.2107 15.2857 17.9399 15.1557Z" fill="#222222"/>
</svg>
