<svg width="45" height="45" viewBox="0 0 45 45" fill="none" xmlns="http://www.w3.org/2000/svg">
<path d="M19.8121 0.53475C21.5331 -0.178137 23.4669 -0.178136 25.1879 0.53475L36.1311 5.06756C37.8522 5.78045 39.2196 7.14782 39.9324 8.86889L44.4652 19.8121C45.1781 21.5331 45.1781 23.4669 44.4652 25.1879L39.9324 36.1311C39.2196 37.8522 37.8522 39.2196 36.1311 39.9324L25.1879 44.4652C23.4669 45.1781 21.5331 45.1781 19.8121 44.4652L8.86889 39.9324C7.14782 39.2196 5.78045 37.8522 5.06756 36.1311L0.534749 25.1879C-0.178137 23.4669 -0.178136 21.5331 0.53475 19.8121L5.06756 8.86888C5.78045 7.14782 7.14782 5.78045 8.86889 5.06756L19.8121 0.53475Z" fill="#1D80C4"/>
</svg>
